<svg width="293.91" height="293" xmlns="http://www.w3.org/2000/svg">
 <title>Hero</title>

 <g>
  <title>Layer 1</title>
  <g stroke="null" id="SGVIFC">
   <g stroke="null" id="svg_1">
    <path stroke="null" id="svg_2" fill="#fff" d="m167.38799,211.35519c10.56892,1.30547 20.95092,3.3328 30.76435,7.58711c3.32567,1.4437 6.52672,3.10242 9.38508,5.36012c8.31806,6.56577 8.29469,14.12984 -0.15577,20.61881c-5.61547,4.30806 -12.16555,6.71935 -18.89477,8.69292c-8.21681,2.41129 -16.65948,3.67069 -25.15668,4.60756c-0.81779,0.09215 -21.58178,0.78328 -31.18493,0.78328c-3.25557,-0.1843 -3.96432,-0.13823 -6.62018,-0.82168c-10.94276,-1.51281 -22.4463,-4.3311 -32.46224,-9.15368c-3.74624,-1.80463 -7.25883,-3.97018 -10.01594,-7.13403c-4.13566,-4.74578 -4.21355,-9.76802 -0.14019,-14.54452c3.24778,-3.80891 7.52364,-6.22788 12.05651,-8.19377c9.93027,-4.29271 20.39015,-6.55809 31.13041,-7.7023c0,9.33798 -0.01558,18.67596 0,28.01394c0,3.44031 0.03894,3.44031 3.38018,3.46335q3.44249,0.01536 3.5048,-3.30976c0,-0.38396 0.05452,-0.77561 0,-1.15189c-0.37385,-2.46504 0.55298,-3.36352 3.18547,-3.2944c6.47999,0.17662 12.97555,0.02304 19.46332,0.06911c4.6497,0.03072 5.39739,-1.01366 5.21826,4.84561c-0.03115,0.95223 -0.35048,2.09644 0.87231,2.7031c2.84278,1.4053 5.56874,-0.25342 5.58431,-3.42495c0.03894,-9.33798 0.06231,-18.67596 0.09346,-28.01394l-0.00779,0z" class="cls-1"/>
    <path stroke="null" id="svg_3" fill="#fff" d="m147.72216,34.00267c0.69317,2.89508 0.31154,5.83624 0.35827,8.75436c0.01558,0.78328 -0.17913,1.628 -1.11375,1.74319c-0.96577,0.11519 -1.44865,-0.68345 -1.4175,-1.4437c0.12462,-3.02563 -0.69317,-6.11269 0.61529,-9.05385l1.55769,0z" class="cls-1"/>
    <path stroke="null" id="svg_4" fill="#fff" d="m157.0683,34.00267c1.43307,3.19457 0.3349,6.42754 0.14798,9.64515c-0.03894,0.72185 -0.52183,1.15957 -1.26952,1.12117c-0.75548,-0.03072 -1.19942,-0.53755 -1.15269,-1.23636c0.22586,-3.21761 -0.22586,-6.54273 1.48759,-9.53764l0.77884,0l0.00779,0.00768z" class="cls-1"/>
    <path stroke="null" id="svg_5" fill="#fff" d="m137.59719,34.00267c1.33961,2.97187 0.95798,6.1818 1.31625,9.28423c0.07788,0.65274 -0.2726,1.30547 -0.95798,1.48978c-0.70096,0.19198 -1.40192,-0.17662 -1.45644,-0.86776c-0.26481,-3.30976 -1.37077,-6.65792 0.31154,-9.90625l0.77884,0l0.00779,0z" class="cls-1"/>
    <path stroke="null" id="svg_6" fill="#070707" d="m146.70188,51.97982c4.54066,0 9.08133,-0.0384 13.62199,0.00768c4.0422,0.0384 4.73537,0.66042 5.38181,4.46165c0.02337,0.12287 0.01558,0.26109 0.04673,0.38396c0.6075,2.08108 0.02337,4.68435 1.46423,6.23556c1.43307,1.53585 3.93316,0.41468 5.95816,0.5913c2.11067,0.1843 3.51259,1.04438 3.58268,3.22529c0.0701,2.13483 -1.12154,3.46335 -3.31009,3.40191c-2.25086,-0.06143 -2.41442,0.49915 -2.18855,2.75685c0.49067,4.8149 0.21029,9.70658 0.22586,14.56756c0.01558,4.34646 -0.0701,8.7006 0.03894,13.04706c0.04673,1.84302 -0.54519,2.61863 -2.43778,2.38825c-0.76327,-0.09215 -1.55769,-0.07679 -2.32874,0c-1.45644,0.13055 -2.21192,-0.36093 -2.07951,-1.91214c0.07788,-0.89079 -0.04673,-1.79695 0.03115,-2.68774c0.12462,-1.4437 -0.405,-2.08876 -1.9549,-2.08876c-10.63901,0.0384 -21.27803,0.03072 -31.91704,0c-1.30846,0 -1.94711,0.4454 -1.8225,1.77391c0.02337,0.25342 0.01558,0.51451 0,0.76793c-0.16356,4.49237 -0.15577,4.43093 -4.85999,4.16216c-1.43307,-0.08447 -2.0873,-0.407 -2.07951,-1.95821c0.05452,-9.08456 0.03115,-18.16913 0.03115,-27.25369c0,-0.13055 -0.02337,-0.27645 0.03115,-0.38396c1.09817,-2.21931 0.86452,-3.56318 -2.10288,-3.16386c-0.24923,0.03072 -0.52183,-0.0384 -0.76327,-0.10751c-1.58884,-0.43004 -2.41442,-1.58961 -2.42999,-3.09474c-0.01558,-1.67408 0.83336,-3.04099 2.65586,-3.27136c1.65894,-0.21502 3.3724,-0.24574 5.04691,-0.13055c1.63557,0.10751 2.35211,-0.54523 2.5624,-2.06572c0.23365,-1.64336 0.52183,-3.27904 0.84115,-4.91473c0.83336,-4.29271 1.3474,-4.71507 5.91922,-4.7381c4.28364,-0.02304 8.56729,0 12.84314,0l-0.00779,0zm0.16356,18.1077c4.01884,0 8.03767,-0.07679 12.05651,0.03072c1.8225,0.04608 2.21971,-0.59898 1.86144,-2.23466c-0.51404,-2.37289 -1.02029,-4.75346 -1.26952,-7.16475c-0.17913,-1.72015 -1.0125,-2.04268 -2.53903,-2.02732c-6.737,0.05375 -13.4818,0.06143 -20.2188,0c-1.55769,-0.01536 -2.36769,0.39164 -2.57019,2.01965c-0.30375,2.40361 -0.74769,4.79186 -1.23057,7.17243c-0.32711,1.60497 0.02337,2.2961 1.86923,2.24234c4.01105,-0.11519 8.03767,-0.0384 12.05651,-0.03072l-0.01558,-0.00768zm-0.09346,15.29709c1.93153,0 3.87086,-0.01536 5.80239,0c1.15269,0.01536 1.97826,-0.13823 1.97048,-1.62032c0,-1.35923 -0.59971,-1.78159 -1.85365,-1.77391c-3.87086,0.02304 -7.74171,0.02304 -11.61257,0c-1.17606,0 -1.94711,0.20734 -1.93932,1.65104c0.00779,1.32851 0.51404,1.78927 1.8225,1.75087c1.93153,-0.06143 3.87086,-0.01536 5.80239,-0.01536l0.00779,0.00768zm0.00779,-6.19716c1.93153,0 3.86307,-0.02304 5.7946,0.00768c1.17606,0.01536 1.97048,-0.20734 1.97826,-1.64336c0,-1.36691 -0.62308,-1.76623 -1.87702,-1.75855c-3.86307,0.02304 -7.72614,0.02304 -11.58921,0c-1.18384,0 -1.94711,0.2227 -1.93932,1.65872c0,1.33619 0.54519,1.78927 1.83807,1.75087c1.93153,-0.05375 3.86307,-0.01536 5.7946,-0.01536zm-15.70929,-2.85668c-2.2275,-0.07679 -4.22134,1.74319 -4.35374,3.97786c-0.1324,2.27306 1.58105,4.21591 3.87865,4.38486c2.41442,0.1843 4.57182,-1.75087 4.59518,-4.1084c0.01558,-2.17323 -1.91596,-4.17752 -4.1123,-4.25431l-0.00779,0zm31.76906,0c-2.24307,-0.04608 -4.19018,1.78159 -4.28364,4.03929c-0.09346,2.27306 1.65115,4.20056 3.92538,4.33878c2.39105,0.14591 4.57961,-1.85838 4.57182,-4.17752c0,-2.1118 -2.05615,-4.15448 -4.21355,-4.20056zm-15.95073,11.90285c-1.92375,0 -3.85528,0.01536 -5.77903,0c-1.1449,-0.01536 -1.9549,0.14591 -1.94711,1.61264c0.00779,1.34387 0.5374,1.75087 1.83028,1.73551c3.85528,-0.04608 7.71056,-0.02304 11.56584,-0.00768c1.13711,0 1.97826,-0.13823 1.99384,-1.59729c0.01558,-1.38995 -0.67759,-1.74319 -1.87702,-1.73551c-1.92375,0.01536 -3.85528,0 -5.77903,0l-0.00779,-0.00768z" class="cls-2"/>
    <path stroke="null" id="svg_7" fill="#070707" d="m120.20559,133.44141c-3.5048,0.03072 -7.0096,0.09215 -10.5144,0.09215c-1.48759,0 -3.09201,-0.21502 -3.16211,-2.06572c-0.07788,-2.12716 1.59663,-2.28074 3.26336,-2.28074c5.70893,0.01536 11.42565,-0.10751 17.13458,0.06143c2.14182,0.06143 3.33345,-0.83704 3.47365,-2.63399c0.1324,-1.75855 -0.25702,-3.63997 -2.84278,-3.65533c-1.45644,0 -2.60134,-0.61434 -2.4923,-2.26538c0.12462,-1.87374 1.58884,-2.10412 3.0998,-2.1118c2.33653,-0.00768 4.67307,0 7.0096,0c1.52654,0 3.04528,0.26109 3.1699,2.06572c0.12462,1.81998 -1.26173,2.31146 -2.85836,2.34217c-0.39721,0 -0.7399,0.09983 -0.87231,0.95223c6.97845,0 13.91016,0 20.83409,0c0.70875,0 1.32404,-0.23806 1.05923,-1.09813c-0.32711,-1.04438 -0.22586,-2.43433 -1.7524,-2.68006c-0.76327,-0.12287 -1.55769,-0.01536 -2.32874,-0.06911c-1.37855,-0.09983 -2.18855,-0.89079 -2.12625,-2.21931c0.05452,-1.12885 0.80221,-1.88142 2.03278,-1.91214c1.6823,-0.0384 3.3724,-0.05375 5.0547,0c1.69009,0.05375 1.93153,1.45138 2.34432,2.65702c1.48759,4.35414 3.0998,8.66988 4.42384,13.0701c0.73211,2.43433 1.64336,3.28672 4.53287,2.96419c10.01594,-1.11349 18.31842,6.02822 18.70005,15.63497c0.38163,9.47621 -7.32114,17.37049 -16.88535,17.30137c-9.43181,-0.06911 -16.87756,-7.74069 -16.60496,-17.16315c0.03115,-1.14421 0.23365,-2.28842 0.43615,-3.41727c0.10125,-0.58362 -0.06231,-0.97527 -0.5374,-1.2594c-0.54519,-0.32253 -1.0125,-0.04608 -1.37077,0.30717c-1.37077,1.36691 -2.81163,2.68006 -4.02663,4.16984c-1.74461,2.15019 -3.74624,3.44031 -6.66691,2.91044c-2.07173,-0.37628 -3.05307,0.33021 -3.73066,2.56487c-2.51567,8.20145 -10.52219,13.07778 -18.58323,11.69551c-8.4271,-1.4437 -14.33074,-8.43951 -14.15939,-16.73311c0.19471,-9.39174 7.88969,-15.79624 15.21862,-16.11877c1.74461,0.32253 3.52817,-0.13055 5.28057,0.34557c0.54519,0.14591 0.81,-0.49147 0.93461,-0.96759c0.21029,-0.79096 -0.41279,-0.71417 -0.86452,-0.69113c-1.87702,0.07679 -3.76961,-0.30717 -5.63105,0.21502l0.00779,-0.00768zm62.75928,17.53175c-0.01558,-7.17243 -6.5345,-13.1085 -13.42728,-12.23306c-1.72903,0.2227 -2.98297,0.56827 -1.9549,2.80293c1.25394,2.7415 1.56548,5.95143 4.40047,7.87124c0.99692,0.67577 1.03586,1.78159 0.405,2.72614c-0.76327,1.14421 -1.90038,1.21332 -3.06865,0.60666c-1.04365,-0.54523 -1.86144,-1.36691 -2.55461,-2.30378c-1.47202,-1.98893 -2.1574,-4.31574 -2.95182,-6.60416c-0.82558,-2.36521 -1.25394,-2.40361 -2.85836,-0.46076c-3.28672,3.97018 -3.5749,9.96 -0.69317,14.29878c3.01413,4.53076 8.73085,6.61952 13.93353,5.08367c5.1871,-1.52817 8.78537,-6.35843 8.77758,-11.78766l-0.00779,0zm-60.36044,12.24842c4.34595,-0.13055 8.17787,-2.32682 10.49882,-6.85758c1.45644,-2.83365 1.215,-3.19457 -1.91596,-3.23297c-2.71817,-0.03072 -5.44412,0.06143 -8.16229,-0.02304c-3.09201,-0.09983 -3.73066,-1.0367 -2.59355,-3.81659c1.05923,-2.59559 2.27423,-5.13743 3.38018,-7.71766c1.05144,-2.442 0.62308,-2.99491 -2.1574,-2.90276c-6.71364,0.2227 -12.15776,5.93607 -12.02536,12.60935c0.14019,6.56577 5.55316,11.85678 12.97555,11.94893l0,-0.00768zm25.13331,-34.86384c-3.11538,0 -6.22297,0 -9.33834,0c-1.05923,0 -1.83028,0.12287 -1.18384,1.48978c2.50009,5.32941 4.96903,10.66649 7.4146,16.01126c0.4751,1.04438 0.98913,0.96759 1.6823,0.24574c4.19018,-4.3695 8.45825,-8.66221 12.53161,-13.12386c1.57327,-1.72015 0.18692,-4.52308 -2.1574,-4.5922c-2.98297,-0.09215 -5.96595,-0.02304 -8.94892,-0.02304l0,-0.00768zm-18.17823,20.55738c0.64644,0 1.29288,0.01536 1.93932,0c2.74932,-0.06911 2.95961,-0.37628 1.89259,-2.79525c-0.25702,-0.58362 -0.56077,-1.15189 -0.93461,-1.67408c-0.88788,-1.22868 -1.69788,-3.08706 -3.21663,-2.97955c-1.4175,0.09983 -1.4175,2.18859 -2.06394,3.38655c-0.42058,0.78328 -0.77106,1.61264 -1.12932,2.42665c-0.50625,1.15957 -0.06231,1.67408 1.17606,1.64336c0.77884,-0.01536 1.5499,0 2.32874,0l0.00779,-0.00768zm3.76961,-16.93277q-2.67144,4.15448 0.45173,7.21083c1.48759,1.45138 2.70259,3.09474 3.5048,4.99152c0.49067,1.16725 0.81,2.40361 1.15269,3.62461c0.25702,0.93687 0.95019,1.27476 1.74461,1.02902c0.77884,-0.24574 0.63086,-0.94455 0.32711,-1.58193c-2.38326,-5.04527 -4.75095,-10.09823 -7.18095,-15.28173l0,0.00768z" class="cls-2"/>
    <path stroke="null" id="svg_8" fill="#070707" d="m167.38799,211.35519c-0.03115,9.33798 -0.05452,18.67596 -0.09346,28.01394c-0.01558,3.17153 -2.74153,4.82258 -5.58431,3.42495c-1.22279,-0.60666 -0.90346,-1.75087 -0.87231,-2.7031c0.18692,-5.85928 -0.56856,-4.80722 -5.21826,-4.84561c-6.48777,-0.04608 -12.97555,0.09983 -19.46332,-0.06911c-2.63249,-0.06911 -3.55932,0.82936 -3.18547,3.2944c0.05452,0.37628 0.01558,0.76793 0,1.15189q-0.06231,3.32512 -3.5048,3.30976c-3.33345,-0.01536 -3.3724,-0.01536 -3.38018,-3.46335c-0.01558,-9.33798 0,-18.67596 0,-28.01394c0.84115,-6.84222 0.80221,-13.6998 0.30375,-20.55738c-0.31154,-4.23895 0.24923,-4.91473 4.59518,-4.92241c10.60786,-0.01536 21.21572,-0.02304 31.82358,0c4.09672,0.00768 4.74316,0.62202 4.42384,4.74578c-0.52961,6.8883 -0.17135,13.76123 0.1324,20.63417l0.02337,0zm-20.68611,2.62631c4.26807,0 8.54392,-0.05375 12.81199,0.03072c1.65115,0.03072 2.2898,-0.4454 2.18076,-2.15787c-0.22586,-3.43263 -0.34269,-6.88062 -0.3349,-10.32093c0,-1.87374 -0.75548,-2.34217 -2.55461,-2.32682c-8.0221,0.08447 -16.0442,0.07679 -24.06629,0c-1.83028,-0.01536 -2.51567,0.55291 -2.4923,2.38825c0.05452,3.31744 0.04673,6.64256 -0.22586,9.94464c-0.18692,2.21931 0.78663,2.5188 2.65586,2.47272c4.01105,-0.09983 8.0221,-0.03072 12.03315,-0.03072l-0.00779,0zm0.45173,-22.41576c-4.39268,0 -8.79315,0 -13.18584,0c-0.75548,0 -1.67452,-0.07679 -1.71346,1.00598c-0.03894,1.09813 0.87231,1.08278 1.63557,1.09045c8.52835,0.00768 17.06448,0.00768 25.59283,0c0.88788,0 2.01721,0.10751 1.90817,-1.221c-0.08567,-1.04438 -1.09038,-0.87544 -1.83028,-0.87544c-4.13566,-0.01536 -8.27133,0 -12.40699,0zm11.9942,37.66677l0,0c0.90346,0 1.81471,-0.00768 2.71817,0c0.66202,0 1.19163,-0.08447 1.46423,-0.86008c1.1449,-3.23297 -0.25702,-5.21422 -3.75403,-5.2219c-1.03586,0 -2.07173,0 -3.10759,0c-0.5374,0 -1.2773,0.12287 -1.33182,0.56827c-0.17135,1.51281 -0.39721,3.09474 -0.11683,4.5538c0.31154,1.56657 1.90038,0.79096 2.95182,0.95991c0.38163,0.06143 0.77884,0.00768 1.16827,0.00768l0.00779,-0.00768zm-24.72052,0c4.40047,0 4.69643,-0.34557 4.17461,-4.40022c-0.1324,-1.02902 -0.37385,-1.7048 -1.56548,-1.69712c-1.6823,0.01536 -3.3724,0 -5.0547,0c-0.67759,0 -1.215,0.12287 -1.53432,0.8524c-1.23836,2.81061 0.21029,5.21422 3.20105,5.23726c0.25702,0 0.52183,0 0.77884,0l0,0.00768z" class="cls-2"/>
    <path stroke="null" id="svg_9" fill="#070707" d="m220.84787,110.70313c3.3724,0 6.75258,-0.08447 10.12498,0.02304c3.45028,0.10751 6.16066,2.59559 6.35537,5.58282c0.06231,0.99062 -0.10904,1.87374 -1.17606,2.1118c-0.91904,0.20734 -1.4175,-0.48379 -1.66673,-1.2594c-0.2726,-0.84472 -0.31154,-1.75087 -1.02029,-2.43433c-0.90346,-0.87544 -1.97048,-1.35923 -3.16211,-0.98295c-1.16827,0.3686 -0.65423,1.49746 -0.68538,2.30378c-0.14019,3.22529 -0.12462,3.2944 3.28672,3.76284c1.87702,0.26109 2.71038,1.27476 2.8973,3.01027c1.65115,15.11278 4.62634,30.11038 3.87865,45.4305c-0.10904,2.24234 -0.2726,4.13144 -2.99076,4.53844c-0.72433,0.10751 -1.26173,0.41468 -1.18384,1.19796c0.17135,1.67408 -0.55298,2.16555 -2.2275,2.21931c-1.83807,0.05375 -2.58576,-0.43772 -2.44557,-2.3345c0.07788,-1.00598 -0.92682,-1.04438 -1.70567,-1.04438c-5.45191,-0.00768 -10.90382,0 -16.35573,0c-0.92682,0 -1.97826,0 -1.83807,1.31315c0.2025,1.81998 -0.7399,2.09644 -2.28201,2.04268c-1.42529,-0.04608 -2.64028,-0.05375 -2.39884,-1.98125c0.12462,-0.95223 -0.44394,-1.31315 -1.3474,-1.45906c-2.52346,-0.39164 -2.71038,-2.18091 -2.78826,-4.27735c-0.36606,-10.26717 0.52961,-20.44219 1.93932,-30.59417c0.66981,-4.8149 1.35519,-9.62979 1.83807,-14.46005c0.24923,-2.5188 1.32404,-3.7398 3.93316,-3.61693c0.85673,0.0384 2.06394,0.21502 2.21971,-0.95991c0.21029,-1.60497 0.72433,-3.46335 -0.25702,-4.8149c-0.75548,-1.0367 -2.14182,-0.29949 -3.12317,0.37628c-0.78663,0.54523 -1.08259,1.38995 -1.30067,2.28842c-0.24923,1.02902 -0.59192,2.17323 -2.01721,1.62032c-1.24615,-0.48379 -0.95798,-1.68944 -0.77884,-2.68006c0.51404,-2.75685 2.98297,-4.79186 6.14508,-4.89169c3.3724,-0.10751 6.74479,-0.02304 10.12498,-0.02304l0.00779,-0.00768zm-0.18692,40.50042c3.48922,0 6.97845,-0.04608 10.46767,0.02304c1.58105,0.03072 2.39884,-0.27645 2.14961,-2.11948c-0.98913,-7.19547 -1.93153,-14.39093 -2.7649,-21.60176c-0.18692,-1.628 -0.80221,-2.1118 -2.41442,-2.08108c-4.7821,0.09215 -9.56421,0.08447 -14.34631,0c-1.54211,-0.03072 -2.32096,0.33789 -2.51567,1.98893c-0.84115,7.21083 -1.74461,14.41397 -2.71038,21.60944c-0.23365,1.74319 0.35048,2.25002 2.05615,2.20395c3.35682,-0.09215 6.72143,-0.03072 10.08604,-0.03072l-0.00779,0.00768zm-0.06231,-31.38514c0.90346,0 1.81471,0 2.71817,0c4.35374,0 4.50951,-0.24574 4.14345,-4.50773c-0.10904,-1.30547 -0.52961,-1.79695 -1.85365,-1.76623c-2.71817,0.06143 -5.44412,0 -8.16229,0.02304c-3.18547,0.02304 -3.18547,0.0384 -3.17769,3.12546q0.00779,3.07938 3.21663,3.12546c1.03586,0.01536 2.07173,0 3.10759,0l0.00779,0zm-6.00489,42.40487c0.06231,-1.90446 -1.74461,-3.73212 -3.66836,-3.68604c-1.78355,0.0384 -3.41913,1.6664 -3.48143,3.45567c-0.06231,1.85838 1.38634,3.4787 3.24778,3.63229c1.97826,0.16126 3.8397,-1.45906 3.90201,-3.40191zm19.70476,-0.13823c-0.02337,-1.97357 -1.8225,-3.67069 -3.75403,-3.54014c-1.79913,0.12287 -3.34903,1.78159 -3.34124,3.57854c0,1.99661 1.74461,3.60157 3.76961,3.49406c1.89259,-0.09983 3.34903,-1.65104 3.32567,-3.53246z" class="cls-2"/>
    <path stroke="null" id="svg_10" fill="#070707" d="m89.37114,144.9603c0,7.27994 -0.03115,14.55988 0.01558,21.83982c0.01558,2.32682 -0.4751,4.07769 -3.31009,4.12376c-2.18076,0.03072 -1.55769,1.71248 -1.49538,2.81061c0.09346,1.76623 -0.38163,2.47272 -2.34432,2.4804c-1.94711,0.00768 -2.62471,-0.66042 -2.2898,-2.43433c0.45952,-2.47272 -0.67759,-3.01027 -2.99855,-2.91812c-4.52509,0.16894 -9.07354,0.19198 -13.59862,0c-2.42999,-0.10751 -3.34124,0.65274 -2.94403,2.97955c0.32711,1.90446 -0.56856,2.40361 -2.39884,2.36521c-1.59663,-0.0384 -2.47673,-0.38396 -2.20413,-2.11948c0.3349,-2.08876 -0.11683,-3.27904 -2.71817,-3.36352c-1.92375,-0.06143 -2.10288,-1.88142 -2.09509,-3.5171c0.02337,-5.75177 -0.07788,-11.49585 0.03115,-17.24762c0.16356,-8.80811 0.42836,-17.61622 0.70096,-26.42433c0.11683,-3.87035 0.61529,-4.31574 4.63412,-4.32342c9.19815,-0.02304 18.39631,-0.02304 27.59446,0c4.01105,0.00768 4.61076,0.52987 4.64191,4.32342c0.06231,7.14939 0.01558,14.29878 0.01558,21.44817l0.75548,0l0.00779,-0.02304zm-19.15178,2.11948c3.75403,0 7.50806,-0.06143 11.2543,0.02304c1.73682,0.0384 2.17298,-0.61434 2.10288,-2.2577c-0.26481,-5.98982 -0.45173,-11.97965 -0.52961,-17.97715c-0.02337,-1.7048 -0.64644,-2.17323 -2.28201,-2.15787c-6.98623,0.06143 -13.97247,0.07679 -20.9587,0c-1.76798,-0.02304 -2.50788,0.39164 -2.53124,2.30378c-0.0701,5.86695 -0.24144,11.73391 -0.58413,17.58551c-0.12462,2.18091 0.75548,2.55719 2.65586,2.50344c3.62163,-0.10751 7.24325,-0.03072 10.86488,-0.03072l0.00779,0.00768zm9.71219,15.87303c3.71509,-0.01536 3.53595,0.4454 3.54374,-3.48638q0.00779,-3.5171 -3.51259,-3.52478q-3.74624,-0.00768 -3.73066,3.67837q0.01558,3.34048 3.69951,3.3328zm-15.98189,-3.49406q0,-3.50942 -3.46586,-3.5171q-3.66836,-0.00768 -3.69172,3.30208c-0.02337,3.70908 -0.02337,3.72444 3.66836,3.7014c3.47365,-0.02304 3.48143,0.6681 3.48922,-3.48638z" class="cls-2"/>
    <path stroke="null" id="svg_11" fill="#fff" d="m256.08279,182.174c-0.03115,1.14421 -0.77106,1.58193 -1.55769,1.34387c-2.59355,-0.79096 -5.14037,-1.71248 -7.67941,-2.6647c-0.59192,-0.2227 -1.05144,-0.78328 -0.66981,-1.52817c0.24923,-0.49147 0.74769,-0.86776 1.25394,-0.69881c2.6948,0.87544 5.37403,1.81231 8.03767,2.77989c0.28817,0.10751 0.45173,0.56059 0.61529,0.77561l0,-0.00768z" class="cls-1"/>
    <path stroke="null" id="svg_12" fill="#fff" d="m87.22932,59.58997c0,0.79864 -0.17913,1.25172 -0.75548,1.43602c-0.55298,0.16894 -1.10596,0.00768 -1.38634,-0.407c-1.50317,-2.21931 -2.95961,-4.46165 -4.41605,-6.71935c-0.30375,-0.46843 -0.24144,-1.00598 0.14798,-1.4053c0.37385,-0.38396 0.93461,-0.64506 1.37077,-0.2227c2.18855,2.18859 3.55153,4.92241 5.04691,7.31833l-0.00779,0z" class="cls-1"/>
    <path stroke="null" id="svg_13" fill="#fff" d="m176.97556,39.51638c-0.50625,2.23466 -0.98134,4.47701 -1.55769,6.68864c-0.18692,0.72953 -0.66202,1.46674 -1.65115,1.11349c-0.69317,-0.24574 -0.95019,-0.87544 -0.81,-1.55121c0.49846,-2.36521 1.02029,-4.73042 1.59663,-7.08028c0.18692,-0.74489 0.65423,-1.61264 1.55769,-1.37459c1.02807,0.27645 1.19163,1.221 0.86452,2.19627l0,0.00768z" class="cls-1"/>
    <path stroke="null" id="svg_14" fill="#fff" d="m59.95419,203.89095c-0.17913,0.28413 -0.30375,0.69113 -0.59192,0.89847c-2.09509,1.4821 -4.21355,2.94116 -6.33979,4.37718c-0.57634,0.38396 -1.24615,0.45308 -1.7524,-0.10751c-0.50625,-0.56059 -0.44394,-1.25172 0.14019,-1.67408c2.18855,-1.57425 4.38489,-3.13314 6.65912,-4.57684c0.98913,-0.62202 1.70567,-0.15359 1.87702,1.09045l0.00779,-0.00768z" class="cls-1"/>
    <path stroke="null" id="svg_15" fill="#fff" d="m235.40447,72.62935c-0.31933,0.42236 -0.56077,0.88311 -0.92682,1.19796c-1.74461,1.50513 -3.51259,2.99491 -5.30393,4.44629c-0.61529,0.49915 -1.33961,0.87544 -2.06394,0.16894c-0.78663,-0.76025 -0.2726,-1.42834 0.31933,-1.94285c1.83807,-1.59729 3.71509,-3.15618 5.5921,-4.69971c0.51404,-0.42236 1.16827,-0.6297 1.76798,-0.19198c0.2726,0.19966 0.38163,0.61434 0.62308,1.02134l-0.00779,0z" class="cls-1"/>
    <path stroke="null" id="svg_16" fill="#fff" d="m238.85475,93.58605c-0.9424,0.0384 -1.37077,-0.19966 -1.62,-0.69881c-0.26481,-0.52219 -0.15577,-1.06742 0.28817,-1.36691c2.34432,-1.57425 4.81326,-2.95652 7.40681,-4.10072c0.55298,-0.24574 1.02029,0.09215 1.35519,0.46843c0.38942,0.43772 0.32711,1.08278 -0.11683,1.35155c-2.50788,1.54353 -5.06249,3.01795 -7.32114,4.34646l0.00779,0z" class="cls-1"/>
    <path stroke="null" id="svg_17" fill="#fff" d="m47.57835,179.79343c-0.05452,0.73721 -0.57634,1.14421 -1.19163,1.35923c-2.30538,0.80632 -4.63412,1.55121 -6.95508,2.31146c-0.68538,0.2227 -1.2773,0.08447 -1.64336,-0.56059c-0.39721,-0.69113 -0.11683,-1.35155 0.51404,-1.58193c2.64807,-0.95991 5.3273,-1.87374 8.02989,-2.68006c0.65423,-0.19198 1.12932,0.4454 1.24615,1.14421l0,0.00768z" class="cls-1"/>
    <path stroke="null" id="svg_18" fill="#fff" d="m207.6854,61.12582c-1.19942,-0.30717 -1.66673,-0.95991 -1.02807,-1.97357c1.36298,-2.15787 2.78047,-4.28503 4.22134,-6.39682c0.38942,-0.57594 1.04365,-0.80632 1.69009,-0.47611c0.66981,0.33789 0.82558,1.02902 0.45173,1.628c-1.43307,2.26538 -2.92067,4.49237 -4.43162,6.71167c-0.18692,0.26877 -0.63086,0.3686 -0.89567,0.51451l-0.00779,-0.00768z" class="cls-1"/>
    <path stroke="null" id="svg_19" fill="#fff" d="m39.00327,136.2597c-1.52654,-0.16126 -3.06086,-0.29949 -4.58739,-0.50683c-0.83336,-0.10751 -1.5499,-0.54523 -1.38634,-1.46674c0.15577,-0.88311 0.9424,-1.12117 1.79134,-1.04438c2.29759,0.23038 4.59518,0.4454 6.88498,0.71417c0.77106,0.09215 1.62,0.34557 1.58105,1.30547c-0.05452,1.22868 -1.06702,1.23636 -1.98605,1.19796c-0.77106,-0.03072 -1.53432,-0.15359 -2.29759,-0.23806c0,0.00768 0,0.02304 0,0.03072l0,0.00768z" class="cls-1"/>
    <path stroke="null" id="svg_20" fill="#fff" d="m252.18857,136.50544c-0.70875,0.03072 -1.71346,0.07679 -1.81471,-1.15189c-0.07788,-0.94455 0.71654,-1.27476 1.51875,-1.36691c2.29759,-0.26877 4.59518,-0.49147 6.90056,-0.71417c0.82558,-0.08447 1.69009,0.09983 1.84586,0.96759c0.22586,1.19796 -0.83336,1.45138 -1.72125,1.56657c-2.16519,0.27645 -4.33816,0.46076 -6.72922,0.70649l0,-0.00768z" class="cls-1"/>
    <path stroke="null" id="svg_21" fill="#fff" d="m252.44559,191.58877c-0.25702,0.64506 -0.70875,1.19029 -1.42529,0.95991c-2.68701,-0.88311 -5.23383,-2.09644 -7.71056,-3.44799c-0.4751,-0.26109 -0.68538,-0.77561 -0.48288,-1.30547c0.25702,-0.69113 0.87231,-1.04438 1.53432,-0.76025c2.47673,1.05206 4.9223,2.17323 7.36008,3.31744c0.45173,0.21502 0.78663,0.65274 0.73211,1.24404l-0.00779,-0.00768z" class="cls-1"/>
    <path stroke="null" id="svg_22" fill="#fff" d="m49.19834,108.82171c-0.21029,0.65274 -0.58413,1.30547 -1.30846,1.13653c-2.87394,-0.66042 -5.67778,-1.56657 -8.2869,-2.94116c-0.43615,-0.23038 -0.58413,-0.86776 -0.21808,-1.34387c0.21808,-0.27645 0.65423,-0.65274 0.89567,-0.5913c2.97519,0.73721 5.94258,1.51281 8.60623,3.07938c0.17913,0.10751 0.21029,0.4454 0.31154,0.66042z" class="cls-1"/>
    <path stroke="null" id="svg_23" fill="#fff" d="m37.22751,174.0647c-1.35519,0.19966 -2.13403,0.06911 -2.3599,-0.83704c-0.17913,-0.72185 0.37385,-1.21332 1.02807,-1.38227c2.4923,-0.63738 4.99239,-1.25172 7.50027,-1.80463c0.64644,-0.14591 1.33182,0.0384 1.56548,0.77561c0.30375,0.95223 -0.31154,1.41298 -1.12154,1.628c-2.36769,0.60666 -4.75095,1.16725 -6.62018,1.628l0.00779,-0.00768z" class="cls-1"/>
    <path stroke="null" id="svg_24" fill="#fff" d="m240.22552,194.99068c2.46115,1.32083 5.1248,2.62631 7.48469,4.41557c0.45952,0.34557 0.42058,0.90615 0.06231,1.35923c-0.34269,0.43004 -0.89567,0.69881 -1.36298,0.43772c-2.47673,-1.36691 -4.93009,-2.77221 -7.35229,-4.22359c-0.45952,-0.27645 -0.56856,-0.8524 -0.29596,-1.37459c0.26481,-0.51451 0.74769,-0.64506 1.47202,-0.62202l-0.00779,0.00768z" class="cls-1"/>
    <path stroke="null" id="svg_25" fill="#fff" d="m236.7986,216.18544c-0.46731,1.09813 -1.26173,1.2594 -2.14182,0.57594c-2.025,-1.56657 -4.01105,-3.18689 -5.97374,-4.83025c-0.49846,-0.41468 -0.75548,-1.02902 -0.22586,-1.67408c0.37385,-0.46076 0.96577,-0.63738 1.37077,-0.3686c2.45336,1.628 4.80547,3.39423 6.8071,5.56746c0.14798,0.16126 0.11683,0.47611 0.16356,0.72185l0,0.00768z" class="cls-1"/>
    <path stroke="null" id="svg_26" fill="#fff" d="m256.66692,174.11846c-2.24307,-0.54523 -4.49393,-1.09045 -6.72922,-1.65104c-0.79442,-0.19966 -1.51096,-0.59898 -1.24615,-1.53585c0.24923,-0.87544 1.04365,-1.04438 1.87702,-0.86008c2.25865,0.50683 4.5173,1.00598 6.75258,1.57425c0.73211,0.1843 1.64336,0.53755 1.47202,1.45138c-0.2025,1.09045 -1.13711,1.221 -2.12625,1.01366l0,0.00768z" class="cls-1"/>
    <path stroke="null" id="svg_27" fill="#fff" d="m185.43381,39.83891c0.87231,0.26109 1.32404,0.8524 1.05923,1.72015c-0.73211,2.43433 -1.51096,4.85329 -2.32874,7.2569c-0.21029,0.61434 -0.75548,1.09813 -1.4798,0.91383c-0.70096,-0.1843 -1.07481,-0.79096 -0.86452,-1.47442c0.76327,-2.55719 1.58105,-5.09135 2.41442,-7.62551c0.17135,-0.52219 0.66202,-0.73721 1.20721,-0.79096l-0.00779,0z" class="cls-1"/>
    <path stroke="null" id="svg_28" fill="#fff" d="m42.68721,127.51303c-2.78826,-0.52219 -5.07028,-0.91383 -7.33671,-1.38995c-0.65423,-0.13823 -1.16827,-0.65274 -1.03586,-1.36691c0.12462,-0.71417 0.74769,-1.05974 1.44086,-0.95991c2.2898,0.31485 4.57961,0.66042 6.85383,1.06742c0.86452,0.15359 2.03278,0.33789 1.93153,1.46674c-0.12462,1.38227 -1.31625,1.27476 -1.85365,1.19029l0,-0.00768z" class="cls-1"/>
    <path stroke="null" id="svg_29" fill="#fff" d="m66.92484,77.78982c-0.23365,0.93687 -0.89567,1.36691 -1.70567,0.86776c-2.40663,-1.49746 -4.46278,-3.44031 -6.51114,-5.3678c-0.39721,-0.3686 -0.50625,-0.89847 -0.12462,-1.37459c0.34269,-0.42236 0.91125,-0.74489 1.3474,-0.46076c2.4923,1.59729 4.72759,3.50942 6.79152,5.61354c0.15577,0.15359 0.14019,0.47611 0.2025,0.72185z" class="cls-1"/>
    <path stroke="null" id="svg_30" fill="#fff" d="m120.66511,45.28351c0.05452,1.19029 -0.01558,1.85838 -0.77106,2.0734c-0.96577,0.27645 -1.46423,-0.407 -1.65115,-1.15957c-0.59192,-2.34217 -1.11375,-4.70739 -1.62,-7.06492c-0.17913,-0.82168 0.07788,-1.60497 0.98134,-1.79695c0.70096,-0.15359 1.22279,0.36093 1.39413,1.02902c0.62308,2.46504 1.19942,4.94544 1.67452,6.91901l-0.00779,0z" class="cls-1"/>
    <path stroke="null" id="svg_31" fill="#fff" d="m61.37168,84.68579c-0.26481,1.28244 -0.99692,1.628 -1.97048,1.00598c-2.1574,-1.38227 -4.26028,-2.84901 -6.35537,-4.32342c-0.5374,-0.37628 -0.88009,-0.98295 -0.4751,-1.65872c0.38163,-0.64506 1.04365,-0.82936 1.64336,-0.43772c2.25086,1.47442 4.47057,2.99491 6.66691,4.53844c0.26481,0.19198 0.35827,0.6297 0.49067,0.88311l0,-0.00768z" class="cls-1"/>
    <path stroke="null" id="svg_32" fill="#fff" d="m129.68413,43.34833c0.16356,1.36691 0.09346,2.31914 -1.09817,2.41897c-0.95019,0.07679 -1.24615,-0.72953 -1.37077,-1.52817c-0.34269,-2.2577 -0.68538,-4.5154 -1.0125,-6.78079c-0.12462,-0.82936 0.08567,-1.628 0.95798,-1.81998c0.95798,-0.20734 1.39413,0.5913 1.52654,1.35923c0.405,2.25002 0.70875,4.5154 0.98913,6.35843l0.00779,-0.00768z" class="cls-1"/>
    <path stroke="null" id="svg_33" fill="#fff" d="m221.61892,72.28379c-1.09817,-0.34557 -1.43307,-1.20564 -0.70096,-2.01197c1.80692,-1.99661 3.76961,-3.86267 5.69335,-5.75177c0.38163,-0.37628 0.91904,-0.43772 1.40971,-0.09983c0.46731,0.32253 0.81,0.89079 0.48288,1.29779c-1.90817,2.41129 -3.93316,4.73042 -6.45662,6.55809c-0.08567,0.06143 -0.25702,0.00768 -0.42836,0.00768z" class="cls-1"/>
    <path stroke="null" id="svg_34" fill="#fff" d="m258.20904,164.58081c-2.17298,-0.29949 -4.21355,-0.56059 -6.25412,-0.86008c-0.91904,-0.13823 -1.9549,-0.41468 -1.72125,-1.56657c0.22586,-1.14421 1.30067,-0.99062 2.21192,-0.87544c2.04057,0.26109 4.08114,0.51451 6.12172,0.78328c0.90346,0.12287 2.04057,0.26877 1.93932,1.39763c-0.12462,1.46674 -1.45644,1.05206 -2.29759,1.12117z" class="cls-1"/>
    <path stroke="null" id="svg_35" fill="#fff" d="m250.92684,127.51303c-0.84894,0.07679 -1.66673,-0.13823 -1.8225,-0.9983c-0.16356,-0.91383 0.63865,-1.35155 1.4175,-1.49746c2.39105,-0.45308 4.79768,-0.84472 7.20431,-1.221c0.64644,-0.09983 1.3474,0.01536 1.54211,0.76793c0.23365,0.90615 -0.29596,1.43602 -1.16048,1.60497c-2.39105,0.46843 -4.78989,0.89847 -7.18873,1.34387l0.00779,0z" class="cls-1"/>
    <path stroke="null" id="svg_36" fill="#fff" d="m254.44722,106.12629c0.04673,0.66042 -0.3349,1.06742 -0.80221,1.23636c-2.54682,0.90615 -5.10143,1.78159 -7.67941,2.58791c-0.68538,0.21502 -1.28509,-0.23806 -1.46423,-0.92151c-0.1324,-0.52219 0.17135,-1.0367 0.68538,-1.221c2.66365,-0.96759 5.31951,-1.94285 8.02989,-2.77221c0.52961,-0.16126 1.23057,0.33021 1.23057,1.09813l0,-0.00768z" class="cls-1"/>
    <path stroke="null" id="svg_37" fill="#fff" d="m243.4032,101.40354c-1.24615,0.27645 -1.74461,0.08447 -2.03278,-0.35325c-0.28817,-0.43772 -0.30375,-1.08278 0.17135,-1.38227c2.50009,-1.57425 5.22605,-2.68006 8.0221,-3.61693c0.50625,-0.16894 0.98913,0.14591 1.22279,0.69113c0.23365,0.54523 0.07788,1.11349 -0.37385,1.33619c-2.52346,1.24404 -5.08585,2.41897 -7.01739,3.32512l0.00779,0z" class="cls-1"/>
    <path stroke="null" id="svg_38" fill="#fff" d="m44.21374,96.0127c2.60913,1.01366 5.35066,2.10412 7.90527,3.60925c0.45173,0.26109 0.58413,0.8524 0.25702,1.35155c-0.29596,0.4454 -0.79442,0.80632 -1.30067,0.5913c-2.60913,-1.09045 -5.20268,-2.23466 -7.76508,-3.40959c-0.46731,-0.21502 -0.67759,-0.75257 -0.48288,-1.31315c0.18692,-0.56059 0.67759,-0.71417 1.39413,-0.82936l-0.00779,0z" class="cls-1"/>
    <path stroke="null" id="svg_39" fill="#fff" d="m56.58179,92.34201c-0.04673,1.01366 -0.77106,1.50513 -1.53432,1.12117c-2.53124,-1.2594 -4.97682,-2.67238 -7.42239,-4.07769c-0.46731,-0.26877 -0.55298,-0.84472 -0.30375,-1.35923c0.24923,-0.49915 0.74769,-0.8524 1.23836,-0.65274c2.73374,1.15189 5.31951,2.57255 7.73393,4.28503c0.17135,0.12287 0.19471,0.4454 0.28817,0.67577l0,0.00768z" class="cls-1"/>
    <path stroke="null" id="svg_40" fill="#fff" d="m233.33274,85.97591c-1.03586,-0.3686 -1.51096,-1.22868 -0.66202,-1.98125c2.10288,-1.85838 4.46278,-3.40191 6.93172,-4.76882c0.49067,-0.27645 1.05923,-0.06911 1.38634,0.32253c0.2025,0.24574 0.24923,0.72953 0.17135,1.06742c-0.18692,0.79096 -6.98623,5.42156 -7.8196,5.36012l-0.00779,0z" class="cls-1"/>
    <path stroke="null" id="svg_41" fill="#fff" d="m42.91307,192.58708c-0.88788,-0.06143 -1.33961,-0.24574 -1.59663,-0.75257c-0.28038,-0.56059 -0.04673,-1.02134 0.42058,-1.30547c2.42999,-1.46674 5.07028,-2.4804 7.69498,-3.54014c0.54519,-0.21502 1.00471,0.13823 1.33182,0.54523c0.38163,0.47611 0.2726,1.05206 -0.15577,1.34387c-2.46115,1.68176 -5.33508,2.49576 -7.69498,3.7014l0,0.00768z" class="cls-1"/>
    <path stroke="null" id="svg_42" fill="#fff" d="m195.84696,44.44647c-1.11375,2.64167 -1.93932,5.45995 -3.51259,7.94036c-0.28038,0.43772 -0.83336,0.57594 -1.37077,0.25342c-0.49067,-0.29949 -0.74769,-0.76793 -0.57634,-1.28244c0.88788,-2.64934 1.89259,-5.25261 3.23999,-7.70998c0.26481,-0.47611 0.78663,-0.5913 1.33961,-0.42236c0.57634,0.1843 0.73211,0.66042 0.88009,1.21332l0,0.00768z" class="cls-1"/>
    <path stroke="null" id="svg_43" fill="#fff" d="m108.21139,39.84659c0.50625,0.10751 1.06702,0.20734 1.24615,0.76025c0.83336,2.53416 1.66673,5.06831 2.42999,7.62551c0.19471,0.66042 -0.14019,1.28244 -0.87231,1.47442c-0.73211,0.19966 -1.30067,-0.20734 -1.50317,-0.84472c-0.81779,-2.54184 -1.59663,-5.09135 -2.31317,-7.65622c-0.19471,-0.70649 0.28817,-1.18261 1.0125,-1.35155l0,-0.00768z" class="cls-1"/>
    <path stroke="null" id="svg_44" fill="#fff" d="m216.76672,223.02766c0.32711,0.13055 0.62308,0.16126 0.78663,0.32253c1.90817,1.90446 3.81634,3.80891 5.6622,5.76712c0.4751,0.49915 0.46731,1.20564 -0.0701,1.72783c-0.56856,0.55291 -1.22279,0.39932 -1.70567,-0.09215c-1.89259,-1.91982 -3.75403,-3.86267 -5.59989,-5.82088c-0.38942,-0.41468 -0.35827,-0.96759 0.02337,-1.37459c0.24144,-0.25342 0.62308,-0.37628 0.89567,-0.52987l0.00779,0z" class="cls-1"/>
    <path stroke="null" id="svg_45" fill="#fff" d="m249.30684,118.55133c-1.06702,0.03072 -1.79134,0.09983 -2.04057,-0.64506c-0.30375,-0.89079 0.22586,-1.4821 1.05144,-1.69712c2.47673,-0.65274 4.96124,-1.26708 7.46133,-1.84302c0.68538,-0.16126 1.31625,0.19966 1.50317,0.87544c0.2025,0.72953 -0.35048,1.24404 -0.95798,1.42066c-2.45336,0.71417 -4.93787,1.34387 -7.0096,1.8891l-0.00779,0z" class="cls-1"/>
    <path stroke="null" id="svg_46" fill="#fff" d="m38.42693,114.36613c2.35211,0.6297 4.70422,1.23636 7.04075,1.89678c0.66202,0.1843 1.09038,0.69113 0.97356,1.41298c-0.12462,0.80632 -0.83336,1.00598 -1.44865,0.86776c-2.61692,-0.58362 -5.22605,-1.22868 -7.81181,-1.93517c-0.63865,-0.17662 -1.05144,-0.76793 -0.7399,-1.48978c0.38163,-0.88311 1.19163,-0.76793 1.97048,-0.75257l0.01558,0z" class="cls-1"/>
    <path stroke="null" id="svg_47" fill="#fff" d="m229.0491,224.37921c-0.19471,-0.09215 -0.59971,-0.19198 -0.86452,-0.43004c-1.90038,-1.73551 -3.78518,-3.48638 -5.63105,-5.27565c-0.49846,-0.48379 -0.59192,-1.15189 -0.08567,-1.71248c0.52961,-0.58362 1.23057,-0.49915 1.73682,-0.04608c2.00163,1.81231 3.97211,3.65533 5.91143,5.53675c0.36606,0.35325 0.36606,0.92151 0.07788,1.42066c-0.21808,0.38396 -0.57634,0.47611 -1.1449,0.49915l0,0.00768z" class="cls-1"/>
    <path stroke="null" id="svg_48" fill="#fff" d="m79.93933,65.24958c-0.35048,1.10581 -1.30067,1.49746 -2.01721,0.71417c-1.89259,-2.06572 -3.58268,-4.31574 -5.31172,-6.52737c-0.35048,-0.45308 -0.09346,-0.99062 0.32711,-1.33619c0.42058,-0.34557 1.0125,-0.47611 1.40971,-0.07679c2.07173,2.08876 3.92538,4.36182 5.51422,6.83454c0.06231,0.09983 0.05452,0.24574 0.08567,0.39164l-0.00779,0z" class="cls-1"/>
    <path stroke="null" id="svg_49" fill="#fff" d="m204.59338,48.96955c-1.26173,2.23466 -2.29759,4.97616 -4.08893,7.31833c-0.31933,0.42236 -0.92682,0.34557 -1.40971,0.03072c-0.49067,-0.32253 -0.71654,-0.86776 -0.48288,-1.31315c1.28509,-2.48808 2.62471,-4.95312 4.00326,-7.38745c0.24923,-0.43772 0.87231,-0.58362 1.37855,-0.30717c0.4751,0.26109 0.67759,0.72953 0.59192,1.65872l0.00779,0z" class="cls-1"/>
    <path stroke="null" id="svg_50" fill="#fff" d="m234.87486,202.50868c0.39721,0.16126 0.79442,0.23806 1.09817,0.4454c2.025,1.36691 4.03441,2.7415 6.02826,4.1468c0.5374,0.37628 0.97356,0.89847 0.59971,1.61264c-0.3349,0.63738 -1.00471,0.97527 -1.59663,0.58362c-2.35211,-1.55121 -4.65749,-3.17153 -6.9395,-4.8149c-0.42836,-0.30717 -0.52183,-0.89847 -0.12462,-1.35155c0.23365,-0.26877 0.6075,-0.41468 0.92682,-0.62202l0.00779,0z" class="cls-1"/>
    <path stroke="null" id="svg_51" fill="#fff" d="m65.42167,210.72549c0,0.12287 0.01558,0.24574 0,0.3686c-0.1324,0.82936 -6.32422,6.02822 -7.25883,6.02054c-0.91125,-0.00768 -1.72125,-0.77561 -1.20721,-1.42066c1.91596,-2.40361 4.42384,-4.21591 7.04075,-5.83624c0.50625,-0.31485 1.24615,0.09215 1.43307,0.86008l-0.00779,0.00768z" class="cls-1"/>
    <path stroke="null" id="svg_52" fill="#fff" d="m78.11684,224.3101c-0.21029,0.37628 -0.3349,0.76025 -0.58413,1.02902c-1.6823,1.76623 -3.38018,3.5171 -5.10922,5.24493c-0.57634,0.57594 -1.25394,0.92919 -2.00942,0.1843c-0.6075,-0.59898 -0.36606,-1.19796 0.08567,-1.68176c1.76019,-1.86606 3.55932,-3.7014 5.36624,-5.52907c0.49067,-0.49147 1.10596,-0.71417 1.70567,-0.21502c0.26481,0.2227 0.36606,0.6297 0.54519,0.95991l0,0.00768z" class="cls-1"/>
    <path stroke="null" id="svg_53" fill="#fff" d="m41.09836,161.24034c1.215,0 2.27423,-0.19198 2.3599,1.09813c0.0701,0.95991 -0.74769,1.22868 -1.52654,1.34387c-2.14961,0.31485 -4.30701,0.62202 -6.46441,0.86008c-0.84894,0.09215 -1.9549,0.31485 -2.18855,-0.89079c-0.22586,-1.18261 0.73211,-1.42834 1.67452,-1.55889c2.1574,-0.29181 4.30701,-0.5913 6.14508,-0.84472l0,-0.00768z" class="cls-1"/>
    <path stroke="null" id="svg_54" fill="#fff" d="m71.48108,217.50628c0.0701,0.6297 -0.17135,1.05974 -0.55298,1.42066c-1.76798,1.65104 -3.52038,3.31744 -5.31172,4.94544c-0.59192,0.53755 -1.31625,0.86008 -1.97048,0.06143c-0.4751,-0.58362 -0.30375,-1.28244 0.14798,-1.72015c1.8225,-1.77391 3.66836,-3.52478 5.60768,-5.17582c0.75548,-0.64506 1.67452,-0.63738 2.07951,0.47611l0,-0.00768z" class="cls-1"/>
    <path stroke="null" id="svg_55" fill="#fff" d="m47.002,201.34143c-0.66202,-0.16894 -1.12932,-0.39164 -1.25394,-0.95223c-0.12462,-0.53755 0.07788,-1.02902 0.54519,-1.29779c2.32874,-1.32851 4.66528,-2.64934 7.03297,-3.91642c0.44394,-0.23806 1.0125,-0.14591 1.42529,0.25342c0.45173,0.43004 0.41279,1.06742 0.06231,1.34387c-2.41442,1.89678 -5.16374,3.26369 -7.81181,4.56916z" class="cls-1"/>
    <path stroke="null" id="svg_56" fill="#fff" d="m95.10344,55.15904c-0.10904,0.82936 -0.36606,1.25172 -0.92682,1.37459c-0.56077,0.13055 -1.08259,-0.13055 -1.31625,-0.56059c-1.26173,-2.3345 -2.4923,-4.69203 -3.66057,-7.0726c-0.28817,-0.5913 -0.06231,-1.29012 0.58413,-1.59729c0.26481,-0.13055 0.88009,-0.0384 1.04365,0.17662c1.90817,2.39593 3.06086,5.19118 4.27586,7.67926z" class="cls-1"/>
    <path stroke="null" id="svg_57" fill="#fff" d="m103.25794,50.90473c0.17135,1.05974 -0.04673,1.51281 -0.55298,1.74319c-0.67759,0.30717 -1.3474,0.07679 -1.62778,-0.55291c-1.09038,-2.42665 -2.11846,-4.88401 -3.10759,-7.35673c-0.26481,-0.66042 0.04673,-1.24404 0.77884,-1.4821c0.54519,-0.17662 1.13711,-0.01536 1.3474,0.43772c1.16048,2.53416 2.25086,5.10671 3.16211,7.21083z" class="cls-1"/>
    <path stroke="null" id="svg_58" fill="#fff" d="m37.17299,154.91263c-1.15269,0 -2.30538,0.0384 -3.45807,-0.01536c-0.68538,-0.0384 -1.215,-0.38396 -1.20721,-1.17493c0,-0.76793 0.49846,-1.19796 1.18384,-1.22868c2.5624,-0.12287 5.13258,-0.1843 7.69498,-0.23038c0.70875,-0.00768 1.25394,0.38396 1.24615,1.13653c0,0.72185 -0.51404,1.15189 -1.22279,1.20564c-1.40971,0.11519 -2.81942,0.16126 -4.22913,0.23806c0,0.02304 0,0.04608 0,0.06911l-0.00779,0z" class="cls-1"/>
    <path stroke="null" id="svg_59" fill="#fff" d="m163.97665,43.57103c0.31933,-2.19627 0.6075,-4.22359 0.91904,-6.24324c0.14019,-0.92919 0.41279,-1.89678 1.62778,-1.67408c0.9424,0.17662 0.97356,1.08278 0.87231,1.86606c-0.26481,2.02732 -0.56856,4.05465 -0.84894,6.07429c-0.14019,1.02134 -0.18692,2.24234 -1.67452,2.01197c-1.33961,-0.20734 -0.66202,-1.42066 -0.88788,-2.035l-0.00779,0z" class="cls-1"/>
    <path stroke="null" id="svg_60" fill="#fff" d="m256.22298,154.80512c-1.40192,-0.08447 -2.81163,-0.10751 -4.20576,-0.26877c-0.68538,-0.07679 -1.12932,-0.60666 -1.00471,-1.32083c0.09346,-0.49915 0.48288,-0.94455 1.05923,-0.92919c2.67922,0.05375 5.36624,0.11519 8.03767,0.26109c0.61529,0.03072 1.24615,0.43772 1.22279,1.19796c-0.02337,0.74489 -0.62308,1.11349 -1.2773,1.14421c-1.26952,0.06911 -2.54682,0.02304 -3.82413,0.02304l0,-0.10751l-0.00779,0z" class="cls-1"/>
    <path stroke="null" id="svg_61" fill="#fff" d="m221.21392,58.90652c-0.16356,0.38396 -0.23365,0.78328 -0.45952,1.0751c-1.49538,1.89678 -2.99855,3.78588 -4.54845,5.63658c-0.51404,0.62202 -1.22279,0.9983 -1.97826,0.38396c-0.59192,-0.47611 -0.49067,-1.19796 -0.08567,-1.7048c1.65115,-2.09644 3.34124,-4.15448 5.06249,-6.18948c0.34269,-0.407 0.95019,-0.4454 1.40192,-0.10751c0.28038,0.20734 0.41279,0.59898 0.6075,0.91383l0,-0.00768z" class="cls-1"/>
    <path stroke="null" id="svg_62" fill="#fff" d="m255.98154,142.9637c1.80692,0 2.95961,-0.0384 4.1123,0.01536c0.66981,0.03072 1.30846,0.35325 1.31625,1.09045c0.01558,0.70649 -0.55298,1.15957 -1.23836,1.19029c-2.67922,0.10751 -5.35845,0.16126 -8.03767,0.19966c-0.52961,0 -0.99692,-0.29949 -1.05923,-0.88311c-0.0701,-0.69881 0.2726,-1.29012 0.98134,-1.36691c1.51875,-0.16126 3.05307,-0.19198 3.92538,-0.23806l0,-0.00768z" class="cls-1"/>
    <path stroke="null" id="svg_63" fill="#fff" d="m73.06214,71.17797c-0.14019,0.25342 -0.24923,0.63738 -0.50625,0.86776c-0.42836,0.38396 -1.00471,0.36093 -1.38634,-0.02304c-1.97826,-1.98125 -3.93316,-3.98554 -5.84912,-6.02822c-0.36606,-0.39164 -0.24144,-0.95223 0.14798,-1.36691c0.405,-0.43004 0.95019,-0.52219 1.37855,-0.1843c2.20413,1.75087 4.10451,3.80891 5.94258,5.92839c0.15577,0.17662 0.16356,0.46843 0.28038,0.814l-0.00779,-0.00768z" class="cls-1"/>
    <path stroke="null" id="svg_64" fill="#fff" d="m37.99077,145.49785c-1.42529,-0.06911 -2.85057,-0.11519 -4.27586,-0.21502c-0.73211,-0.04608 -1.19942,-0.46843 -1.215,-1.221c-0.01558,-0.814 0.56856,-1.10581 1.26173,-1.10581c2.33653,0 4.67307,0.04608 7.0096,0.10751c0.95798,0.02304 1.91596,0.24574 1.77577,1.46674c-0.11683,1.02902 -1.07481,0.92151 -1.8225,0.95223c-0.90346,0.03072 -1.81471,0.00768 -2.72596,0l-0.00779,0.01536z" class="cls-1"/>
   </g>
  </g>
 </g>
</svg>